<svg xmlns="http://www.w3.org/2000/svg" viewBox="0 0 48 48" fill="none">
  <rect x="3.2" y="3.2" width="41.6" height="41.6" rx="11" fill="none" stroke="#FA4616" stroke-width="2.6"/>
  <path fill="#FA4616" fill-rule="evenodd" d="M24 9.5a12.5 12.5 0 1 1 0 25 12.5 12.5 0 0 1 0-25Z M24 30.6c3.9-2.7 6.6-5 6.6-7.9 0-1.9-1.5-3.3-3.3-3.3-1.4 0-2.6.8-3.3 2-0.7-1.2-1.9-2-3.3-2-1.8 0-3.3 1.4-3.3 3.3 0 2.9 2.7 5.2 6.6 7.9Z"/>
  <line x1="9" y1="35.5" x2="39" y2="35.5" stroke="#FA4616" stroke-width="2.6" stroke-linecap="round"/>
</svg>
