<svg xmlns="http://www.w3.org/2000/svg" viewBox="0 0 100 100" width="100" height="100">
  <g transform="translate(50,50) scale(0.72)" fill="#C6121F">
    <circle r="6"/>
    <path transform="rotate(0)"   d="M0 0 Q5.5 -30 0 -60 Q-5.5 -30 0 0Z"/>
    <path transform="rotate(30)"  d="M0 0 Q5.5 -23 0 -46 Q-5.5 -23 0 0Z"/>
    <path transform="rotate(60)"  d="M0 0 Q5.5 -29 0 -58 Q-5.5 -29 0 0Z"/>
    <path transform="rotate(90)"  d="M0 0 Q5.5 -25 0 -50 Q-5.5 -25 0 0Z"/>
    <path transform="rotate(120)" d="M0 0 Q5.5 -31 0 -62 Q-5.5 -31 0 0Z"/>
    <path transform="rotate(150)" d="M0 0 Q5.5 -22.5 0 -45 Q-5.5 -22.5 0 0Z"/>
    <path transform="rotate(180)" d="M0 0 Q5.5 -28.5 0 -57 Q-5.5 -28.5 0 0Z"/>
    <path transform="rotate(210)" d="M0 0 Q5.5 -24.5 0 -49 Q-5.5 -24.5 0 0Z"/>
    <path transform="rotate(240)" d="M0 0 Q5.5 -30 0 -60 Q-5.5 -30 0 0Z"/>
    <path transform="rotate(270)" d="M0 0 Q5.5 -23.5 0 -47 Q-5.5 -23.5 0 0Z"/>
    <path transform="rotate(300)" d="M0 0 Q5.5 -29 0 -58 Q-5.5 -29 0 0Z"/>
    <path transform="rotate(330)" d="M0 0 Q5.5 -25 0 -50 Q-5.5 -25 0 0Z"/>
  </g>
</svg>
